<svg width="1014" height="299" viewBox="0 0 1014 299" fill="none" xmlns="http://www.w3.org/2000/svg">
<path d="M9.18575 3.93997V286.305H169.718V295.06H13.1225C2.6245 295.06 0 290.245 0 281.927V3.93997H9.18575Z" fill="white"/>
<path d="M300.758 299C240.832 299 195.778 250.407 195.778 189.994C195.778 129.581 236.458 80.9883 296.384 80.9883C354.123 80.9883 394.803 122.139 394.803 182.99V191.745H204.964C205.839 246.029 246.081 290.245 300.758 290.245C332.689 290.245 361.996 276.673 379.93 246.029L387.367 250.845C367.683 283.678 335.751 299 300.758 299ZM205.401 182.99H386.054C386.054 127.392 348.437 89.7438 296.384 89.7438C245.206 89.7438 210.65 128.706 205.839 177.736V178.612C205.401 181.676 205.401 179.925 205.401 182.99Z" fill="white"/>
<path d="M525.84 295.06H517.091V21.0132C517.091 12.2577 513.155 8.31771 507.031 8.31771C503.094 8.31771 498.72 10.0688 493.471 13.1332L427.858 53.4085L423.922 45.9663L488.659 6.56661C495.221 2.62664 500.47 0 508.78 0C518.841 0 525.84 7.87994 525.84 20.5754V295.06Z" fill="white"/>
<path d="M618.675 12.6955V3.93997H753.836C775.707 3.93997 787.517 17.0732 787.517 32.8331C787.517 44.653 780.519 57.3485 766.959 66.9795L691.286 118.199C684.287 123.015 681.225 129.143 681.225 134.397C681.225 141.839 687.349 148.406 697.847 148.406H723.217C770.458 148.406 798.453 174.234 798.453 217.574C798.453 265.729 755.586 299 707.908 299C663.728 299 630.047 278.425 613.426 242.965L621.736 238.149C637.483 270.107 665.478 289.807 707.908 289.807C750.337 289.807 789.267 260.038 789.267 217.574C789.267 179.488 764.772 157.161 723.217 157.161H697.847C681.225 157.161 672.914 146.654 672.914 135.272C672.914 126.517 677.288 117.324 686.474 111.195L761.272 59.9751C773.083 52.0952 778.332 42.0264 778.332 33.2709C778.332 21.8887 769.583 12.6955 753.836 12.6955H618.675Z" fill="white"/>
<path d="M898.959 295.06H889.336L998.69 55.1596C1003.06 45.5285 1005.25 37.6486 1005.25 31.082C1005.25 18.3865 996.066 12.6955 979.882 12.6955H846.469V3.93997H980.319C1003.94 3.93997 1014 14.4466 1014 30.6442C1014 38.9619 1011.38 48.593 1006.56 59.0996L898.959 295.06Z" fill="white"/>
</svg>
