<svg width="954" height="299" viewBox="0 0 954 299" fill="none" xmlns="http://www.w3.org/2000/svg">
<path d="M9.18575 3.93948V286.304H169.718V295.06H13.1225C2.6245 295.06 0 290.244 0 281.926V3.93948H9.18575Z" fill="black"/>
<path d="M465.84 295.06H457.091V21.0127C457.091 12.2572 453.155 8.31722 447.031 8.31722C443.094 8.31722 438.72 10.0683 433.471 13.1327L367.858 53.408L363.922 45.9658L428.659 6.56612C435.22 2.62615 440.469 -0.000488281 448.78 -0.000488281C458.841 -0.000488281 465.84 7.87945 465.84 20.5749V295.06Z" fill="black"/>
<path d="M558.674 12.695V3.93948H693.836C715.707 3.93948 727.517 17.0727 727.517 32.8326C727.517 44.6525 720.519 57.348 706.959 66.979L631.286 118.199C624.287 123.014 621.225 129.143 621.225 134.396C621.225 141.838 627.349 148.405 637.847 148.405H663.217C710.458 148.405 738.453 174.234 738.453 217.573C738.453 265.729 695.586 299 647.907 299C603.728 299 570.047 278.424 553.425 242.964L561.736 238.149C577.483 270.106 605.478 289.806 647.907 289.806C690.337 289.806 729.267 260.038 729.267 217.573C729.267 179.487 704.772 157.161 663.217 157.161H637.847C621.225 157.161 612.914 146.654 612.914 135.272C612.914 126.516 617.288 117.323 626.474 111.194L701.272 59.9746C713.083 52.0947 718.331 42.0259 718.331 33.2704C718.331 21.8882 709.583 12.695 693.836 12.695H558.674Z" fill="black"/>
<path d="M838.959 295.06H829.336L938.69 55.1591C943.065 45.5281 945.252 37.6481 945.252 31.0815C945.252 18.386 936.066 12.695 919.881 12.695H786.469V3.93948H920.319C943.939 3.93948 954 14.4461 954 30.6437C954 38.9614 951.375 48.5925 946.564 59.0991L838.959 295.06Z" fill="black"/>
<path d="M200.48 218.012C140.554 218.012 95.5 169.419 95.5 109.006C95.5 48.593 136.18 0 196.106 0C253.845 0 294.525 41.1508 294.525 102.001V110.757H104.686C105.561 165.041 145.803 209.256 200.48 209.256C232.411 209.256 261.718 195.685 279.652 165.041L287.088 169.857C267.405 202.69 235.473 218.012 200.48 218.012ZM105.123 102.001H285.776C285.776 46.4041 248.158 8.75549 196.106 8.75549C144.928 8.75549 110.372 47.7174 105.561 96.7482V97.6237C105.123 100.688 105.123 98.937 105.123 102.001Z" fill="black"/>
</svg>
